<?xml version="1.0" encoding="UTF-8" standalone="no"?>
<svg
   xmlns:dc="http://purl.org/dc/elements/1.1/"
   xmlns:cc="http://creativecommons.org/ns#"
   xmlns:rdf="http://www.w3.org/1999/02/22-rdf-syntax-ns#"
   xmlns:svg="http://www.w3.org/2000/svg"
   xmlns="http://www.w3.org/2000/svg"
   xmlns:sodipodi="http://sodipodi.sourceforge.net/DTD/sodipodi-0.dtd"
   xmlns:inkscape="http://www.inkscape.org/namespaces/inkscape"
   width="54"
   height="54"
   viewBox="0 0 54 54"
   id="svg2"
   version="1.1"
   inkscape:version="0.91 r13725"
   sodipodi:docname="vk_round.svg">
  <metadata
     id="metadata12">
    <rdf:RDF>
      <cc:Work
         rdf:about="">
        <dc:format>image/svg+xml</dc:format>
        <dc:type
           rdf:resource="http://purl.org/dc/dcmitype/StillImage" />
        <dc:title>Vk</dc:title>
      </cc:Work>
    </rdf:RDF>
  </metadata>
  <defs
     id="defs10" />
  <sodipodi:namedview
     pagecolor="#ffffff"
     bordercolor="#666666"
     borderopacity="1"
     objecttolerance="10"
     gridtolerance="10"
     guidetolerance="10"
     inkscape:pageopacity="0"
     inkscape:pageshadow="2"
     inkscape:window-width="1362"
     inkscape:window-height="887"
     id="namedview8"
     showgrid="false"
     fit-margin-top="2"
     fit-margin-left="2"
     fit-margin-right="2"
     fit-margin-bottom="2"
     inkscape:zoom="4.72"
     inkscape:cx="27"
     inkscape:cy="27"
     inkscape:window-x="0"
     inkscape:window-y="0"
     inkscape:window-maximized="0"
     inkscape:current-layer="svg2" />
  <title
     id="title4">Vk</title>
  <path
     d="M 27,2 C 13.193,2 2,13.193 2,27 2,40.807 13.193,52 27,52 40.807,52 52,40.807 52,27 52,13.193 40.807,2 27,2 Z m 11.76,28.255 c 2.406,2.234 2.906,3.313 2.984,3.453 0,0 1,1.75 -1.109,1.766 l -4,0.063 c -0.859,0.172 -2,-0.609 -2,-0.609 -1.5,-1.031 -2.906,-3.703 -4,-3.359 0,0 -1.125,0.359 -1.094,2.766 0.016,0.516 -0.234,0.797 -0.234,0.797 0,0 -0.281,0.297 -0.828,0.344 l -1.797,0 c -3.953,0.25 -7.438,-3.391 -7.438,-3.391 0,0 -3.813,-3.938 -7.156,-11.797 -0.219,-0.516 0.016,-0.766 0.016,-0.766 0,0 0.234,-0.297 0.891,-0.297 l 4.281,-0.031 c 0.406,0.063 0.688,0.281 0.688,0.281 0,0 0.25,0.172 0.375,0.5 0.703,1.75 1.609,3.344 1.609,3.344 1.563,3.219 2.625,3.766 3.234,3.438 0,0 0.797,-0.484 0.625,-4.375 -0.063,-1.406 -0.453,-2.047 -0.453,-2.047 -0.359,-0.484 -1.031,-0.625 -1.328,-0.672 -0.234,-0.031 0.156,-0.594 0.672,-0.844 0.766,-0.375 2.125,-0.391 3.734,-0.375 1.266,0.016 1.625,0.094 2.109,0.203 1.484,0.359 0.984,1.734 0.984,5.047 0,1.063 -0.203,2.547 0.563,3.031 0.328,0.219 1.141,0.031 3.141,-3.375 0,0 0.938,-1.625 1.672,-3.516 0.125,-0.344 0.391,-0.484 0.391,-0.484 0,0 0.25,-0.141 0.594,-0.094 l 4.5,-0.031 c 1.359,-0.172 1.578,0.453 1.578,0.453 0.234,0.641 -0.5,2.141 -2.344,4.594 -3.032,4.03 -3.36,3.655 -0.86,5.983 z"
     id="path6"
     inkscape:connector-curvature="0" />
</svg>
